<svg xmlns="http://www.w3.org/2000/svg" width="33" height="30" viewBox="0 0 33 30"><g><g><path fill="#fcfcfc" d="M31.271 15.29l-2.363-1.436v1.316l2.363 1.436v1.26l-2.363 1.436-4.243 2.578h-.001l-3.322-2.02v1.319l3.322 2.018 3.12-1.895v2.933l-2.892 1.757-.228-.138-3.242-1.972-.08-.048v1.318l2.467 1.499-2.054 1.248-.413-.252-2.522-1.531v-7.573l2.522-1.532 3.322 2.02v-1.317l-3.321-2.02h-.001l-2.522 1.532v-5.455l2.31 1.405.212.127 3.322-2.02V9.966l-3.322 2.02-2.27-1.38-.252-.152V2.883l2.578-1.567 2.053 1.248L21.37 3.83l-.027.016v1.317l3.193-1.94.129.078 3.12 1.896v2.498L24.663 5.8l-3.322 2.02v1.316l3.322-2.018h.001l3.118 1.894v1.96l-.23-.14-.645-.403-.672-.403-.084-.055v6.117l.703.423.953.59.567.344.533-.326v-.666l-1.047-.636-.587-.364v-3.48l.226.144 1.408.856V9.695l2.363 1.436zm-2.363-6.911V4.563L21.398 0l-3.143 1.91-.002-.002-.56.34V26.75l3.649 2.216.412.25 2.91-1.768 4.244-2.58v-4.25l3.357-2.038.132-.082v-8z"/></g><g><path fill="#fcfcfc" d="M14.38 10.454l-.251.152-2.27 1.38-3.323-2.02v1.317l3.322 2.02.212-.127 2.31-1.405v5.455l-2.522-1.531v-.001l-3.322 2.02v1.317l3.323-2.02 2.521 1.532v7.573l-2.521 1.531-.413.252L9.39 26.65l2.467-1.5v-1.317l-.08.048-3.242 1.972-.228.138-2.89-1.757v-2.933l3.118 1.895 3.322-2.018V19.86l-3.322 2.02h-.001l-4.244-2.578-2.362-1.436v-1.26L4.29 15.17v-1.316L1.93 15.29V11.13L4.29 9.695v3.278l1.41-.856.225-.144v3.48l-.587.364-1.048.636v.666l.534.326.568-.345.951-.589.703-.423V9.971l-.083.055-.672.403-.645.403-.23.14v-1.96l3.118-1.895 3.324 2.02V7.818L8.536 5.801 5.417 7.694V5.197L8.536 3.3l.129-.078 3.194 1.94V3.846l-.028-.016-2.082-1.266 2.054-1.248 2.577 1.567zm.566-8.545L11.803 0 4.29 4.564V8.38l-3.488 2.12v7.999l.132.082 3.356 2.038v4.25l4.245 2.58 2.91 1.768.413-.25 3.648-2.216V2.248l-.56-.34z"/></g></g></svg>