<svg xmlns="http://www.w3.org/2000/svg" width="186" height="35">
    <path d="M59.84 28.527c0 2.163.562 3.2 1.288 3.896 1.052.992 2.548 1.051 3.051 1.051.875 0 1.985-.148 3.052-1.096 1.185-1.051 1.363-2.829 1.363-4.429v-1.585c0-2.31 0-2.725.03-3.2.03-.517.148-.77.548-.843.178-.045.267-.045.37-.045.06 0 .118-.03.118-.088 0-.09-.073-.119-.236-.119-.445 0-1.141.044-1.245.044-.089 0-.904-.044-1.57-.044-.163 0-.237.03-.237.119 0 .059.059.088.118.088.134 0 .386.015.504.045.49.103.608.34.637.844.03.474.03.889.03 3.2v1.85c0 1.526-.178 2.786-.86 3.63-.533.637-1.422 1.067-2.326 1.067-.843 0-1.51-.133-2.236-.816-.637-.607-1.11-1.525-1.11-3.658v-2.074c0-2.31 0-2.725.028-3.2.03-.517.149-.784.548-.843.178-.03.267-.045.371-.045.06 0 .119-.03.119-.088 0-.09-.074-.119-.238-.119-.444 0-1.333.044-1.466.044s-1.037-.044-1.704-.044c-.162 0-.237.03-.237.119 0 .059.06.088.119.088.133 0 .385.015.503.045.49.103.608.34.637.844.03.474.03.889.03 3.2zM72.757 24.158c.474.533 2.148 2.399 3.866 4.25 1.57 1.69 3.704 3.867 3.867 4.015.785.785.962.948 1.081.948.104 0 .133-.074.133-1.052l.03-8.68c0-.889.059-1.214.548-1.318.177-.045.282-.045.355-.045.104 0 .163-.044.163-.103 0-.09-.103-.104-.266-.104-.608 0-1.096.044-1.26.044-.162 0-.873-.044-1.54-.044-.178 0-.296.014-.296.104 0 .059.015.103.118.103.12 0 .46.016.726.075.46.118.563.444.578 1.406l.163 7.525c-.474-.488-2.089-2.296-3.555-3.866a730.19 730.19 0 0 1-4.712-5.08c-.147-.149-.4-.475-.518-.475s-.162.164-.162.741l-.016 8.487c0 1.349-.073 1.778-.444 1.882-.222.074-.489.089-.607.089-.075 0-.119.03-.119.089 0 .103.09.118.237.118.667 0 1.29-.044 1.423-.044s.725.044 1.57.044c.177 0 .266-.03.266-.118 0-.06-.044-.09-.118-.09a3.26 3.26 0 0 1-.74-.088c-.4-.119-.55-.504-.579-1.718zM87.379 26.364c0-2.31 0-2.725.03-3.2.029-.518.148-.769.548-.843.177-.03.266-.045.37-.045.059 0 .118-.03.118-.089 0-.088-.074-.118-.236-.118-.445 0-1.378.044-1.452.044-.075 0-1.008-.044-1.497-.044-.163 0-.236.03-.236.118 0 .06.059.09.118.09.104 0 .296.014.46.058.325.075.473.327.503.83.03.474.03.889.03 3.2v2.607c0 1.42 0 2.591-.074 3.214-.06.43-.134.755-.43.814-.133.03-.311.06-.444.06-.09 0-.119.044-.119.089 0 .088.074.118.237.118.444 0 1.377-.045 1.452-.045.074 0 1.007.045 1.822.045.163 0 .237-.045.237-.118 0-.045-.03-.089-.119-.089-.133 0-.459-.03-.667-.06-.444-.059-.533-.385-.577-.814-.074-.623-.074-1.793-.074-3.214zM92.45 23.876c-.223-.578-.4-1.037-.4-1.23 0-.103.03-.222.192-.295.133-.06.4-.075.563-.075.103 0 .148-.03.148-.103 0-.074-.133-.104-.4-.104-.563 0-1.229.044-1.378.044-.177 0-1.022-.044-1.733-.044-.237 0-.385.015-.385.104 0 .059.03.103.119.103s.34 0 .563.06c.518.148.74.31 1.066 1.14l3.63 9.08c.28.711.356.918.533.918.148 0 .207-.237.622-1.125.34-.726 1.007-2.326 1.911-4.488.755-1.822 1.496-3.6 1.66-4.015.399-1.007.62-1.26.814-1.392.281-.178.608-.178.71-.178.12 0 .179-.03.179-.103 0-.074-.09-.104-.252-.104-.43 0-1.067.044-1.156.044-.177 0-.859-.044-1.452-.044-.236 0-.325.03-.325.118 0 .075.074.09.163.09.162 0 .385 0 .563.058.148.075.192.223.192.341 0 .133-.06.341-.133.563-.327 1.067-2.312 6.236-3.171 8.22zM102.498 28.971c0 1.422 0 2.592-.075 3.215-.059.43-.132.755-.43.814-.133.03-.31.06-.443.06-.09 0-.119.044-.119.088 0 .09.074.119.237.119.444 0 1.377-.044 1.451-.044.43 0 1.423.089 3.66.089.578 0 .696 0 .8-.386.073-.31.193-1.318.193-1.437 0-.103 0-.221-.09-.221-.073 0-.104.059-.132.221-.104.608-.283.904-.667 1.067-.385.163-1.037.163-1.422.163-1.452 0-1.674-.192-1.72-1.214-.014-.312 0-2.03 0-2.534v-1.303c0-.06.03-.104.105-.104.251 0 1.718.03 2.118.075.578.059.711.31.77.518.06.192.06.34.06.489 0 .074.03.133.103.133.104 0 .104-.163.104-.281 0-.104.03-.652.06-.948.044-.49.118-.741.118-.83 0-.089-.03-.118-.074-.118-.06 0-.12.074-.222.192-.134.148-.341.178-.697.207-.34.03-2.162.03-2.355.03-.074 0-.09-.044-.09-.148v-4.088c0-.104.031-.148.09-.148.163 0 1.777.014 2.03.044.8.089.948.267 1.051.504.074.177.089.429.089.533 0 .118.03.192.118.192.06 0 .09-.088.104-.162.03-.178.06-.83.075-.978.044-.415.118-.593.118-.697 0-.073-.015-.133-.06-.133-.073 0-.133.06-.207.074-.118.03-.355.06-.637.075-.34.014-3.288.014-3.393.014-.074 0-1.007-.044-1.673-.044-.163 0-.237.03-.237.118 0 .06.059.09.118.09.134 0 .386.014.504.044.49.103.607.34.637.844.03.474.03.889.03 3.2zM111.09 26.364c0-2.31 0-2.725-.029-3.2-.03-.502-.15-.74-.637-.843a2.756 2.756 0 0 0-.504-.045c-.06 0-.119-.03-.119-.088 0-.09.074-.119.237-.119.667 0 1.6.044 1.674.044.164 0 1.29-.044 1.748-.044.934 0 1.926.089 2.71.652.372.266 1.024.992 1.024 2.014 0 1.096-.46 2.193-1.793 3.422 1.214 1.555 2.222 2.873 3.081 3.792.8.844 1.437 1.007 1.807 1.066.282.045.49.045.578.045.074 0 .134.044.134.089 0 .089-.09.118-.356.118h-1.052c-.83 0-1.2-.074-1.585-.281-.637-.341-1.155-1.067-2-2.178-.622-.815-1.317-1.807-1.614-2.192-.06-.06-.104-.089-.193-.089l-1.822-.03c-.074 0-.104.045-.104.119v.356c0 1.421 0 2.591.074 3.214.045.43.133.755.578.814.208.03.533.06.666.06.089 0 .119.044.119.089 0 .073-.074.118-.237.118-.814 0-1.747-.045-1.822-.045-.015 0-.948.045-1.393.045-.163 0-.236-.03-.236-.118 0-.045.029-.089.118-.089.134 0 .311-.03.445-.06.296-.059.37-.385.43-.814.073-.623.073-1.793.073-3.214zm1.185 1.29c0 .073.03.133.104.177.222.133.903.237 1.555.237.356 0 .77-.044 1.111-.281.52-.356.904-1.156.904-2.281 0-1.852-.977-2.963-2.562-2.963-.445 0-.845.044-.993.089a.18.18 0 0 0-.119.177z"/>
    <path d="M122.706 33.474c.8 0 1.6-.178 2.237-.622 1.023-.726 1.259-1.852 1.259-2.459 0-1.185-.415-2.103-2.163-3.48l-.414-.327c-1.393-1.14-1.807-1.644-1.807-2.488 0-1.08.8-1.718 1.822-1.718 1.362 0 1.763.622 1.851.785.09.163.178.563.193.74.014.12.03.193.118.193.075 0 .105-.103.105-.34 0-1.008.059-1.496.059-1.57 0-.075-.03-.105-.149-.105s-.237-.014-.518-.073c-.37-.09-.8-.15-1.378-.15-1.88 0-3.066 1.083-3.066 2.668 0 1.007.355 1.925 1.925 3.214l.667.548c1.274 1.052 1.704 1.644 1.704 2.666 0 .948-.696 1.97-2.119 1.97-.992 0-1.97-.415-2.193-1.51-.044-.208-.044-.416-.044-.549 0-.118-.015-.162-.104-.162-.073 0-.103.073-.118.236-.014.238-.075.83-.075 1.57 0 .4.016.46.223.563.608.297 1.289.4 1.985.4M130.913 26.364c0-2.31 0-2.725.029-3.2.03-.518.149-.769.549-.843.177-.03.267-.045.37-.045.06 0 .119-.03.119-.089 0-.088-.075-.118-.237-.118-.445 0-1.378.044-1.452.044-.074 0-1.008-.044-1.496-.044-.163 0-.238.03-.238.118 0 .06.06.09.12.09.103 0 .295.014.458.058.327.075.474.327.504.83.03.474.03.889.03 3.2v2.607c0 1.42 0 2.591-.075 3.214-.059.43-.132.755-.43.814-.133.03-.31.06-.444.06-.088 0-.118.044-.118.089 0 .088.074.118.237.118.444 0 1.378-.045 1.452-.045.074 0 1.007.045 1.821.045.164 0 .238-.045.238-.118 0-.045-.03-.089-.12-.089-.132 0-.458-.03-.665-.06-.445-.059-.533-.385-.578-.814-.074-.623-.074-1.793-.074-3.214zM138.157 22.706l1.867.03c1.422.03 1.763.37 1.823.814l.014.163c.015.207.045.252.119.252.059 0 .104-.06.104-.193 0-.162.044-1.185.044-1.63 0-.088 0-.177-.074-.177-.119 0-.52.148-1.467.148h-5.555c-.178 0-.741-.03-1.17-.073-.4-.03-.548-.179-.652-.179-.06 0-.119.193-.148.282-.03.119-.326 1.392-.326 1.54 0 .09.03.134.074.134.059 0 .104-.03.149-.148.044-.104.088-.208.251-.46.237-.355.593-.459 1.511-.474l2.192-.03v6.266c0 1.422 0 2.593-.073 3.215-.06.43-.134.755-.43.814-.134.03-.311.06-.445.06-.089 0-.118.044-.118.089 0 .088.073.118.237.118.444 0 1.378-.044 1.452-.044.074 0 1.007.044 1.822.044.163 0 .237-.044.237-.118 0-.045-.03-.09-.118-.09-.134 0-.46-.029-.667-.059-.445-.059-.533-.384-.578-.814-.075-.622-.075-1.793-.075-3.215zM145.614 22.44c.178-.49.237-.579.326-.579.088 0 .148.075.326.534.223.563 2.547 6.68 3.452 8.932.532 1.318.963 1.554 1.274 1.644.222.074.444.089.593.089.088 0 .147.014.147.089 0 .088-.133.118-.296.118-.222 0-1.304 0-2.325-.03-.281-.014-.445-.014-.445-.104 0-.059.044-.088.103-.102.09-.03.179-.164.09-.401l-1.378-3.644c-.03-.06-.06-.088-.134-.088h-3.184c-.075 0-.119.044-.149.118l-.888 2.622c-.134.37-.208.726-.208.992 0 .296.311.43.562.43h.15c.102 0 .147.03.147.089 0 .088-.088.118-.222.118-.356 0-.993-.044-1.155-.044-.163 0-.978.044-1.674.044-.193 0-.282-.03-.282-.118 0-.06.06-.09.134-.09.103 0 .311-.014.43-.028.68-.09.977-.653 1.243-1.393zm1.54 5.924c.075 0 .075-.045.06-.104l-1.408-4c-.073-.221-.148-.221-.222 0l-1.303 4c-.03.075 0 .104.044.104zm.905-8.472c.133 0 .162.073.133.147l-.133.326c-.016.06-.06.09-.148.09h-3.748c-.104 0-.164-.016-.149-.105l.12-.37c.014-.074.088-.088.176-.088zM155.414 22.706l1.866.03c1.422.03 1.763.37 1.822.814l.016.163c.014.207.044.252.118.252.059 0 .103-.06.103-.193 0-.162.045-1.185.045-1.63 0-.088 0-.177-.074-.177-.12 0-.52.148-1.466.148h-5.557c-.177 0-.74-.03-1.169-.073-.4-.03-.549-.179-.652-.179-.06 0-.119.193-.148.282-.03.119-.326 1.392-.326 1.54 0 .09.03.134.074.134.06 0 .104-.03.148-.148.045-.104.089-.208.252-.46.237-.355.592-.459 1.51-.474l2.194-.03v6.266c0 1.422 0 2.593-.075 3.215-.06.43-.133.755-.43.814-.133.03-.31.06-.443.06-.09 0-.12.044-.12.089 0 .088.075.118.238.118.444 0 1.377-.044 1.452-.044.073 0 1.007.044 1.821.044.164 0 .237-.044.237-.118 0-.045-.03-.09-.118-.09-.132 0-.46-.029-.667-.059-.445-.059-.533-.384-.577-.814-.074-.622-.074-1.793-.074-3.215zM161.792 28.971c0 1.422 0 2.592-.074 3.215-.06.43-.133.755-.43.814-.134.03-.311.06-.444.06-.089 0-.118.044-.118.088 0 .09.074.119.235.119.445 0 1.379-.044 1.453-.044.43 0 1.422.089 3.659.089.578 0 .697 0 .8-.386.074-.31.192-1.318.192-1.437 0-.103 0-.221-.088-.221-.074 0-.104.059-.133.221-.104.608-.282.904-.667 1.067-.386.163-1.037.163-1.422.163-1.452 0-1.674-.192-1.718-1.214-.016-.312 0-2.03 0-2.534v-1.303c0-.06.028-.104.103-.104.251 0 1.719.03 2.118.075.578.059.712.31.77.518.06.192.06.34.06.489 0 .074.03.133.104.133.103 0 .103-.163.103-.281 0-.104.03-.652.06-.948.044-.49.118-.741.118-.83 0-.089-.03-.118-.074-.118-.06 0-.118.074-.222.192-.133.148-.34.178-.696.207-.34.03-2.163.03-2.356.03-.074 0-.088-.044-.088-.148v-4.088c0-.104.028-.148.088-.148.163 0 1.778.014 2.029.044.8.089.949.267 1.052.504.075.177.089.429.089.533 0 .118.03.192.119.192.059 0 .089-.088.104-.162.029-.178.059-.83.074-.978.044-.415.118-.593.118-.697 0-.073-.015-.133-.059-.133-.074 0-.133.06-.208.074-.118.03-.355.06-.636.075-.34.014-3.29.014-3.393.014-.074 0-1.008-.044-1.674-.044-.162 0-.237.03-.237.118 0 .06.06.09.119.09.133 0 .385.014.503.044.49.103.607.34.637.844.03.474.03.889.03 3.2zM59.843 6.528c0-2.964 0-3.496-.038-4.104-.038-.646-.19-.95-.818-1.083a3.5 3.5 0 0 0-.646-.057c-.076 0-.152-.038-.152-.114 0-.114.096-.152.305-.152.854 0 2.052.057 2.147.057.21 0 1.653-.057 2.242-.057 1.198 0 2.471.114 3.479.836.475.342 1.311 1.273 1.311 2.584 0 1.407-.59 2.813-2.3 4.39 1.559 1.996 2.851 3.687 3.954 4.865 1.026 1.084 1.843 1.292 2.318 1.368.361.057.627.057.741.057.095 0 .171.057.171.115 0 .113-.114.151-.456.151h-1.35c-1.063 0-1.539-.095-2.033-.36-.817-.437-1.482-1.369-2.565-2.794-.799-1.045-1.692-2.319-2.072-2.813-.076-.076-.133-.114-.247-.114l-2.338-.038c-.095 0-.133.057-.133.152v.456c0 1.824 0 3.326.095 4.124.058.551.171.97.741 1.046.266.037.684.075.856.075.114 0 .152.057.152.115 0 .095-.095.151-.304.151-1.046 0-2.243-.056-2.338-.056-.019 0-1.217.056-1.787.056-.208 0-.303-.038-.303-.151 0-.058.037-.115.151-.115.171 0 .4-.038.57-.075.38-.077.476-.495.552-1.046.095-.798.095-2.3.095-4.124zm1.52 1.654c0 .095.038.171.133.228.286.171 1.16.304 1.996.304.456 0 .988-.057 1.425-.36.665-.457 1.16-1.483 1.16-2.928 0-2.375-1.255-3.8-3.289-3.8-.57 0-1.083.057-1.272.114a.23.23 0 0 0-.153.228z"/>
    <path d="M73.342 11.078c0 1.421 0 2.591.074 3.213.045.43.134.755.578.815.207.029.533.058.666.058.089 0 .118.045.118.09 0 .074-.074.118-.236.118-.815 0-1.748-.044-1.822-.044-.074 0-1.007.044-1.45.044-.163 0-.238-.03-.238-.119 0-.044.03-.089.118-.089.134 0 .312-.03.445-.058.296-.06.37-.386.43-.815.074-.622.074-1.792.074-3.213V8.473c0-2.31 0-2.725-.03-3.199-.03-.504-.178-.755-.503-.829a1.945 1.945 0 0 0-.46-.06c-.059 0-.118-.028-.118-.088 0-.089.074-.119.237-.119.488 0 1.421.045 1.495.045.074 0 1.007-.045 1.451-.045.163 0 .237.03.237.12 0 .059-.059.088-.118.088-.104 0-.193.015-.37.044-.4.074-.518.326-.548.844-.03.474-.03.888-.03 3.199zm1.274-9.076c.118 0 .148.074.118.148l-.118.326c-.015.06-.06.089-.133.089h-3.48c-.104 0-.163-.015-.148-.104l.118-.37c.015-.074.074-.089.163-.089zM84.353 14.113c0 .252-.103.415-.296.518-.385.222-1.155.311-1.688.311-1.362 0-2.71-.444-3.879-1.584-.518-.503-1.57-2.014-1.57-4.101 0-1.732.607-3.08 1.466-3.76 1.125-.889 2.236-.978 3.169-.978 1.91 0 3.11.637 3.48 1.2.222.355.296.77.31.976.015.134.03.222.105.222.103 0 .133-.073.133-.31 0-1.48.103-1.896.103-2.102 0-.06-.03-.119-.177-.134a7.338 7.338 0 0 1-1.2-.148c-.281-.06-1.332-.252-2.265-.252-1.14 0-2.606.104-3.939.933-1.318.829-2.473 2.502-2.473 4.871 0 1.85.859 3.435 1.762 4.22 1.644 1.436 3.746 1.584 4.872 1.584.859 0 2.191-.163 3.139-.666.178-.104.192-.133.192-.8v-1.658c0-.622 0-1.066.03-1.54.03-.518.148-.77.548-.844a2.21 2.21 0 0 1 .37-.044c.059 0 .119-.03.119-.089 0-.089-.075-.118-.238-.118-.443 0-1.376.044-1.451.044-.074 0-1.007-.044-1.673-.044-.163 0-.237.03-.237.118 0 .06.06.09.119.09a2.8 2.8 0 0 1 .504.043c.591.163.665.326.665 1.525zM91.186 4.549c.177-.49.236-.578.325-.578.089 0 .148.074.326.533.222.563 2.547 6.678 3.45 8.928.533 1.318.962 1.555 1.273 1.644.223.074.445.088.593.088.089 0 .148.015.148.09 0 .088-.133.118-.296.118-.222 0-1.303 0-2.325-.03-.281-.014-.444-.014-.444-.103 0-.06.045-.09.104-.104.088-.03.177-.163.088-.4l-1.377-3.643c-.03-.058-.06-.088-.133-.088h-3.183c-.075 0-.12.045-.149.119l-.888 2.62c-.133.37-.207.726-.207.992 0 .296.31.43.562.43h.148c.104 0 .149.03.149.088 0 .089-.09.119-.223.119-.355 0-.992-.044-1.155-.044-.163 0-.977.044-1.673.044-.192 0-.281-.03-.281-.119 0-.059.06-.089.133-.089.104 0 .311-.014.43-.03.68-.088.977-.65 1.243-1.39zm1.54 5.922c.073 0 .073-.044.059-.104L91.378 6.37c-.074-.222-.148-.222-.222 0l-1.303 3.997c-.03.075 0 .104.044.104zM99.572 15.579c.799 0 1.598-.178 2.236-.621 1.021-.727 1.258-1.852 1.258-2.459 0-1.184-.414-2.102-2.162-3.48l-.415-.325c-1.391-1.14-1.806-1.643-1.806-2.487 0-1.08.8-1.718 1.821-1.718 1.363 0 1.762.623 1.851.785.089.163.178.563.193.74.014.119.03.193.118.193.074 0 .104-.104.104-.34 0-1.007.06-1.496.06-1.57 0-.074-.03-.103-.15-.103-.118 0-.236-.016-.518-.075-.37-.089-.799-.148-1.376-.148-1.88 0-3.065 1.081-3.065 2.665 0 1.007.355 1.925 1.925 3.213l.666.548c1.274 1.051 1.703 1.644 1.703 2.665 0 .947-.696 1.97-2.118 1.97-.991 0-1.969-.415-2.191-1.51-.044-.208-.044-.416-.044-.549 0-.118-.015-.163-.104-.163-.075 0-.104.074-.118.237-.016.237-.075.83-.075 1.57 0 .4.016.459.223.562.606.296 1.287.4 1.984.4M112.056 15.65c1.027 0 2.053-.227 2.87-.798 1.311-.931 1.615-2.375 1.615-3.154 0-1.52-.532-2.699-2.774-4.466l-.533-.418c-1.786-1.464-2.318-2.11-2.318-3.193 0-1.387 1.026-2.204 2.337-2.204 1.75 0 2.262.798 2.376 1.007.113.21.228.722.247.95.019.152.038.247.152.247.095 0 .133-.133.133-.437 0-1.292.076-1.92.076-2.014 0-.095-.038-.134-.19-.134s-.305-.019-.666-.095a7.368 7.368 0 0 0-1.767-.19c-2.413 0-3.933 1.388-3.933 3.421 0 1.293.456 2.47 2.47 4.124l.855.703c1.635 1.35 2.185 2.11 2.185 3.42 0 1.217-.892 2.528-2.717 2.528-1.273 0-2.527-.531-2.812-1.938-.058-.266-.058-.532-.058-.703 0-.152-.018-.21-.133-.21-.095 0-.133.096-.152.305-.018.304-.095 1.064-.095 2.015 0 .513.02.588.285.722.78.38 1.654.512 2.547.512M122.065 4.815l1.865.03c1.422.03 1.762.37 1.821.814l.015.163c.016.207.045.251.119.251.059 0 .104-.059.104-.192 0-.162.044-1.184.044-1.629 0-.088 0-.177-.074-.177-.118 0-.518.148-1.466.148h-5.553c-.177 0-.74-.03-1.17-.074-.399-.03-.547-.178-.65-.178-.06 0-.12.193-.149.281-.03.119-.326 1.392-.326 1.54 0 .09.03.134.075.134.059 0 .103-.03.147-.148.045-.104.089-.208.252-.459.237-.356.593-.46 1.51-.474l2.192-.03v6.263c0 1.421 0 2.59-.074 3.213-.06.43-.134.755-.43.814-.133.03-.31.06-.444.06-.089 0-.118.044-.118.088 0 .089.074.119.237.119.444 0 1.377-.044 1.451-.044.074 0 1.007.044 1.821.044.164 0 .237-.044.237-.119 0-.044-.03-.088-.118-.088-.134 0-.46-.03-.666-.06-.445-.059-.533-.385-.578-.814-.074-.622-.074-1.792-.074-3.213zM127.667 8.472c0-2.31 0-2.724-.029-3.198-.03-.503-.148-.74-.636-.844a2.769 2.769 0 0 0-.504-.044c-.06 0-.119-.03-.119-.088 0-.09.074-.12.237-.12.666 0 1.599.045 1.673.045.163 0 1.288-.044 1.747-.044.933 0 1.925.088 2.71.651.37.267 1.022.992 1.022 2.013 0 1.096-.46 2.192-1.792 3.42 1.215 1.555 2.22 2.873 3.08 3.791.8.844 1.436 1.006 1.806 1.066.281.045.489.045.578.045.074 0 .133.044.133.088 0 .09-.089.118-.355.118h-1.051c-.83 0-1.2-.073-1.585-.28-.637-.341-1.155-1.066-1.999-2.177-.622-.814-1.317-1.806-1.614-2.192-.06-.058-.103-.088-.192-.088l-1.822-.03c-.074 0-.103.045-.103.118v.356c0 1.421 0 2.59.073 3.213.045.429.134.755.579.814.207.03.532.06.665.06.089 0 .119.044.119.088 0 .075-.074.118-.237.118-.814 0-1.747-.043-1.82-.043-.016 0-.95.043-1.393.043-.163 0-.237-.029-.237-.118 0-.044.03-.088.12-.088.132 0 .309-.03.442-.06.297-.059.37-.385.43-.814.074-.622.074-1.792.074-3.213zm1.185 1.288c0 .074.03.134.103.178.222.133.903.237 1.555.237.356 0 .77-.045 1.11-.281.52-.356.904-1.156.904-2.28 0-1.851-.977-2.962-2.561-2.962-.445 0-.845.045-.993.089a.179.179 0 0 0-.118.178z"/>
    <path d="M140.008 4.549c.177-.49.236-.578.325-.578.09 0 .15.074.327.533.222.563 2.546 6.678 3.449 8.928.533 1.318.964 1.555 1.273 1.644.223.074.445.088.593.088.09 0 .149.015.149.09 0 .088-.133.118-.297.118-.222 0-1.303 0-2.325-.03-.281-.014-.444-.014-.444-.103 0-.06.045-.09.104-.104.088-.03.177-.163.088-.4l-1.376-3.643c-.03-.058-.06-.088-.134-.088h-3.183c-.075 0-.118.045-.148.119l-.889 2.62c-.133.37-.207.726-.207.992 0 .296.311.43.563.43h.148c.103 0 .148.03.148.088 0 .089-.09.119-.223.119-.354 0-.992-.044-1.155-.044-.162 0-.977.044-1.673.044-.192 0-.28-.03-.28-.119 0-.059.059-.089.132-.089.104 0 .311-.014.43-.03.681-.088.977-.65 1.243-1.39zm1.54 5.922c.074 0 .074-.044.059-.104L140.2 6.37c-.075-.222-.15-.222-.223 0l-1.303 3.997c-.03.075 0 .104.044.104zM147.209 8.473c0-2.31 0-2.725-.03-3.199-.03-.504-.147-.74-.636-.844a2.786 2.786 0 0 0-.503-.044c-.06 0-.12-.03-.12-.089 0-.089.075-.118.237-.118.667 0 1.6.044 1.674.044.178 0 1.11-.044 2-.044 1.464 0 4.175-.134 5.937 1.687.74.77 1.436 2 1.436 3.761 0 1.866-.77 3.301-1.6 4.176-.636.666-1.968 1.702-4.486 1.702-1.274 0-3.14-.177-3.287-.177-.074 0-1.007.044-1.452.044-.162 0-.235-.03-.235-.119 0-.044.029-.088.118-.088.133 0 .31-.03.443-.06.296-.059.371-.385.43-.814.074-.622.074-1.792.074-3.213zm1.244 1.598c0 1.57.015 2.932.03 3.214.015.37.044.962.163 1.124.192.281.77.592 2.517.592 1.377 0 2.65-.503 3.524-1.376.77-.755 1.185-2.177 1.185-3.539 0-1.88-.815-3.094-1.422-3.731-1.392-1.466-3.08-1.673-4.842-1.673-.296 0-.845.045-.962.104-.134.059-.178.133-.178.295-.015.504-.015 2.014-.015 3.154zM160.857 8.472c0-2.31 0-2.724.029-3.198.029-.518.148-.77.548-.844.177-.03.267-.044.369-.044.06 0 .119-.03.119-.089 0-.089-.074-.118-.237-.118-.444 0-1.377.044-1.45.044-.075 0-1.008-.044-1.497-.044-.163 0-.236.03-.236.118 0 .06.06.09.118.09.104 0 .296.013.459.058.325.074.474.326.504.829.03.474.03.889.03 3.198v2.606c0 1.421 0 2.59-.075 3.213-.059.429-.134.755-.43.814-.133.03-.31.06-.444.06-.09 0-.118.044-.118.088 0 .09.074.119.236.119.445 0 1.378-.045 1.452-.045.074 0 1.007.045 1.821.045.163 0 .237-.045.237-.119 0-.044-.03-.088-.118-.088-.133 0-.46-.03-.666-.06-.445-.059-.534-.385-.578-.814-.073-.622-.073-1.792-.073-3.213zM165.301 6.266c.474.533 2.148 2.4 3.865 4.25 1.57 1.687 3.702 3.864 3.864 4.012.785.784.963.947 1.082.947.103 0 .132-.074.132-1.05l.031-8.677c0-.888.059-1.214.548-1.318.177-.044.28-.044.354-.044.104 0 .164-.045.164-.104 0-.089-.105-.104-.266-.104-.608 0-1.096.045-1.26.045-.163 0-.874-.045-1.54-.045-.176 0-.296.015-.296.104 0 .06.015.104.12.104.118 0 .458.015.724.074.46.118.563.444.578 1.406l.162 7.521c-.473-.488-2.087-2.294-3.553-3.863a741.577 741.577 0 0 1-4.709-5.079c-.147-.148-.4-.474-.518-.474-.12 0-.162.163-.162.74l-.015 8.485c0 1.347-.075 1.776-.445 1.88a2.13 2.13 0 0 1-.607.089c-.074 0-.118.03-.118.088 0 .104.088.119.236.119.666 0 1.29-.044 1.423-.044.132 0 .724.044 1.569.044.177 0 .266-.03.266-.119 0-.059-.044-.088-.119-.088-.133 0-.459-.015-.74-.09-.4-.118-.548-.503-.577-1.717zM180.219 4.549c.177-.49.236-.578.325-.578.09 0 .149.074.326.533.222.563 2.547 6.678 3.45 8.928.533 1.318.963 1.555 1.272 1.644.223.074.445.088.593.088.089 0 .149.015.149.09 0 .088-.133.118-.297.118-.222 0-1.302 0-2.325-.03-.28-.014-.443-.014-.443-.103 0-.06.044-.09.104-.104.088-.03.176-.163.088-.4l-1.376-3.643c-.03-.058-.06-.088-.134-.088h-3.184c-.074 0-.118.045-.149.119l-.887 2.62c-.133.37-.207.726-.207.992 0 .296.31.43.563.43h.147c.104 0 .149.03.149.088 0 .089-.09.119-.223.119-.355 0-.992-.044-1.154-.044-.163 0-.978.044-1.673.044-.193 0-.282-.03-.282-.119 0-.059.059-.089.134-.089.103 0 .31-.014.427-.03.682-.088.979-.65 1.245-1.39zm1.539 5.922c.075 0 .075-.044.06-.104L180.41 6.37c-.074-.222-.148-.222-.222 0l-1.303 3.997c-.03.075 0 .104.044.104z"/>
    <path d="M168.98 15.261c.105.529.21 1.058.21 1.599 0 .552-.21 1.022-.21 1.093 0 .07.058.106.128.106.083 0 .34-.2.682-.929.189-.4.342-1.21.342-1.528v-.34s.01-.116-.126-.116h-.887c-.147 0-.14.115-.14.115"/>
    <g>
        <path d="M24.816 18.466c-3.121 0-6.08.538-8.73 1.498v2.568l2.759-.558V20.42a16.867 16.867 0 0 1 5.97-1.083c2.107 0 4.12.384 5.972 1.083v1.554l2.758.558v-2.568c-2.65-.96-5.608-1.498-8.73-1.498zm-.084 5.346c1.226 0 2.425.314 3.52.89v-2.563c-1.11-.4-2.283-.615-3.496-.615-1.212 0-2.385.215-3.495.615v2.563c1.094-.576 2.246-.89 3.471-.89zm.083-8.013c-5.09 0-9.863.764-13.983 2.1v2.653l2.759-.557v-1.651c3.379-1.07 7.19-1.673 11.224-1.673 4.035 0 7.847.603 11.224 1.673v1.65l2.76.558v-2.653c-4.12-1.336-8.894-2.1-13.984-2.1zM5.52 15.511v2.947l2.76-.558v-1.617c4.86-1.352 10.5-2.126 16.515-2.126 6.016 0 11.656.774 16.515 2.126V17.9l2.76.558v-2.947c-5.645-1.413-12.234-2.225-19.275-2.225-7.04 0-13.631.812-19.275 2.225zm43.783.907v17.819c-6.734-1.407-13.483-1.94-20.908-2.057a226.734 226.734 0 0 0-7 0c-7.47.118-14.532.717-21.028 2.07V16.41l2.642-.534v-1.599c6.138-1.29 13.976-2.253 21.808-2.253 7.832 0 15.19.875 21.806 2.253v1.599zM28.39 11.323a218.054 218.054 0 0 0-7.027 0c-7.457.118-14.548.804-20.997 1.633V0C6.62 1.126 13.923 1.952 21.394 2.07a220.732 220.732 0 0 0 7 0c7.425-.117 14.174-.799 20.908-2.056v12.932c-6.802-.816-13.487-1.505-20.912-1.623z"/>
    </g>
</svg>